<svg xmlns="http://www.w3.org/2000/svg" version="1.1" xmlns:xlink="http://www.w3.org/1999/xlink" xmlns:svgjs="http://svgjs.com/svgjs" width="1440" height="560" preserveAspectRatio="none" viewBox="0 0 1440 560"><g mask="url(&quot;#SvgjsMask1015&quot;)" fill="none"><rect width="1440" height="560" x="0" y="0" fill="rgba(255, 255, 255, 1)"></rect><path d="M63.03 299.51L99.74 299.51L99.74 336.22L63.03 336.22z" fill="rgba(240, 87, 69, 1)"></path><path d="M1060.11 523.15 a55.3 55.3 0 1 0 110.6 0 a55.3 55.3 0 1 0 -110.6 0z" fill="rgba(253, 224, 135, 1)"></path><path d="M78.25 406.85a38.97 38.97 0 1 0-25.11-73.78z" stroke="rgba(253, 224, 135, 1)"></path><path d="M1029.75 83.45L1056.92 83.45L1056.92 110.62L1029.75 110.62z" fill="rgba(240, 87, 69, 1)"></path><path d="M864.02 138.94L910.8 138.94L910.8 185.72L864.02 185.72z" fill="rgba(240, 87, 69, 1)"></path><path d="M489.43 71.03L537.6 71.03L537.6 119.2L489.43 119.2z" stroke="rgba(253, 224, 135, 1)"></path><path d="M23.37 316.77a24.63 24.63 0 1 0 48.33 9.54z" fill="rgba(240, 87, 69, 1)"></path><path d="M288.49 356.26a42.99 42.99 0 1 0-60.9-60.7z" stroke="rgba(240, 87, 69, 1)"></path><path d="M1321.25 229.43L1375.77 229.43L1375.77 283.95L1321.25 283.95z" fill="rgba(240, 87, 69, 1)"></path><path d="M813.57 467.04 a8.34 8.34 0 1 0 16.68 0 a8.34 8.34 0 1 0 -16.68 0z" fill="rgba(253, 224, 135, 1)"></path><path d="M1098.62 405.41L1128.72 405.41L1128.72 435.51L1098.62 435.51z" stroke="rgba(240, 87, 69, 1)"></path><path d="M849.15 347.06L886.27 347.06L886.27 384.18L849.15 384.18z" fill="rgba(240, 87, 69, 1)"></path><path d="M1365.11 441.17 a31.55 31.55 0 1 0 63.1 0 a31.55 31.55 0 1 0 -63.1 0z" stroke="rgba(253, 224, 135, 1)"></path><path d="M1163.21 500.08L1188.49 500.08L1188.49 525.36L1163.21 525.36z" fill="rgba(253, 224, 135, 1)"></path><path d="M968.98 284.16L998.72 284.16L998.72 284.42L968.98 284.42z" fill="rgba(240, 87, 69, 1)"></path><path d="M528.33 65.31L549.82 65.31L549.82 93.58L528.33 93.58z" fill="rgba(55, 169, 136, 1)"></path><path d="M379.04 97.64a13.38 13.38 0 1 0 22.68-14.21z" stroke="rgba(55, 169, 136, 1)"></path><path d="M232.26 440.71a48.59 48.59 0 1 0-92.45 29.94z" stroke="rgba(240, 87, 69, 1)"></path><path d="M947.38 404.65L973.98 404.65L973.98 415.86L947.38 415.86z" stroke="rgba(253, 224, 135, 1)"></path><path d="M613.64 485.24 a20.93 20.93 0 1 0 41.86 0 a20.93 20.93 0 1 0 -41.86 0z" fill="rgba(55, 169, 136, 1)"></path><path d="M154.02 104.74a34.2 34.2 0 1 0 33.92 59.39z" stroke="rgba(253, 224, 135, 1)"></path><path d="M1215.69 475.45L1235.74 475.45L1235.74 495.5L1215.69 495.5z" fill="rgba(55, 169, 136, 1)"></path><path d="M499.54 342.06 a44.05 44.05 0 1 0 88.1 0 a44.05 44.05 0 1 0 -88.1 0z" stroke="rgba(240, 87, 69, 1)"></path><path d="M1060.47 439.02L1079.11 439.02L1079.11 462.07L1060.47 462.07z" fill="rgba(55, 169, 136, 1)"></path><path d="M124.72 255.02L129.96 255.02L129.96 296.35L124.72 296.35z" fill="rgba(55, 169, 136, 1)"></path><path d="M253.53 414.22L284.41 414.22L284.41 445.1L253.53 445.1z" stroke="rgba(240, 87, 69, 1)"></path><path d="M179.12 133.63L192.91 133.63L192.91 144.47L179.12 144.47z" stroke="rgba(55, 169, 136, 1)"></path><path d="M276.87 243.01a5.29 5.29 0 1 0-8.91 5.71z" stroke="rgba(55, 169, 136, 1)"></path><path d="M1289.4 79.37 a15.25 15.25 0 1 0 30.5 0 a15.25 15.25 0 1 0 -30.5 0z" fill="rgba(240, 87, 69, 1)"></path><path d="M80.35 46.75 a12.71 12.71 0 1 0 25.42 0 a12.71 12.71 0 1 0 -25.42 0z" fill="rgba(55, 169, 136, 1)"></path><path d="M1209.7 215.57 a46.57 46.57 0 1 0 93.14 0 a46.57 46.57 0 1 0 -93.14 0z" stroke="rgba(55, 169, 136, 1)"></path><path d="M1151.86 419.27 a2.68 2.68 0 1 0 5.36 0 a2.68 2.68 0 1 0 -5.36 0z" fill="rgba(253, 224, 135, 1)"></path><path d="M1288.8 469.81L1303.3 469.81L1303.3 480.71L1288.8 480.71z" stroke="rgba(55, 169, 136, 1)"></path></g><defs><mask id="SvgjsMask1015"><rect width="1440" height="560" fill="#ffffff"></rect></mask></defs></svg>